<svg width="290" height="278" xmlns="http://www.w3.org/2000/svg" xml:space="preserve" enable-background="new 0 0 290 278" version="1.1">

 <g>
  <path id="svg_2" d="m163.59265,5.25146c23.74823,3.75612 44.97965,12.40916 63.633,26.9544c27.75032,21.63873 44.59579,49.99809 50.63107,84.56027c4.61047,26.40294 1.24118,52.03071 -9.55737,77.27472c-3.07239,-1.41799 -6.0857,-2.63516 -8.9386,-4.15358c-18.38925,-9.78757 -36.76259,-19.58275 -51.58155,-34.71646c-6.4234,-6.55985 -10.03744,-13.65966 -6.21093,-22.91146c3.8477,-9.30313 10.63425,-14.68942 20.76768,-15.46798c5.11241,-0.39279 10.24668,-0.501 15.87352,-0.76112c-4.00235,-13.25957 -10.09864,-24.88729 -18.94636,-35.07758c-14.98615,-17.26026 -34.12602,-26.20494 -56.67803,-28.0138c-39.03881,-3.13123 -70.76399,11.94621 -97.142,39.74975c-23.03628,24.28121 -36.05139,54.08555 -46.41685,85.29922c-0.60705,1.828 -1.27956,3.63426 -2.32697,6.59746c-12.45414,-39.90631 -9.84802,-77.22796 10.5166,-112.4683c21.86589,-37.83824 55.07224,-60.04639 98.12204,-66.57081c12.34066,-1.87028 24.28768,-2.15768 38.25475,-0.29473z" fill="#489FE3"/>
  <path id="svg_3" d="m67.91026,118.91248c11.33071,-15.5579 24.81246,-28.28332 41.80748,-36.67508c28.57669,-14.11054 57.23302,-16.78329 85.21503,1.65639c6.20424,4.08849 11.45017,9.38532 14.83649,16.34998c-17.98075,7.25632 -27.90464,19.95726 -28.71923,39.10688c-0.46991,11.04672 5.00362,19.76957 12.00353,27.59326c13.52154,15.11275 30.49846,25.5789 48.12457,35.09772c5.83252,3.14979 11.77545,6.09517 18.18021,9.3982c-2.83933,3.99808 -5.41233,8.00292 -8.44036,11.62764c-0.79881,0.9562 -3.3137,1.46644 -4.51529,0.95273c-24.05079,-10.28209 -46.15678,-23.60324 -64.7196,-42.29527c-24.73602,-24.90819 -25.32175,-57.42043 -1.54688,-83.21491c0.43126,-0.4679 0.77042,-1.02068 1.45055,-1.93405c-10.46719,-6.447 -21.66992,-8.5257 -33.44485,-7.83321c-22.58398,1.32819 -40.92128,11.52987 -56.41768,27.49807c-19.37091,19.96068 -30.39455,44.56264 -38.78217,70.51172c-4.22633,13.07512 -7.58158,26.43181 -11.57893,40.53703c-3.98226,-5.34006 -7.83474,-10.3336 -11.4298,-15.50606c-0.56295,-0.80995 -0.15763,-2.48338 0.13942,-3.67276c7.89234,-31.60084 18.77039,-61.94451 37.83751,-89.19828z" fill="#3069B3"/>
  <path id="svg_4" d="m118.10974,166.43252c0.91833,-1.41908 2.29851,-3.01313 3.16005,-3.93127c2.81004,8.33054 5.05545,16.67008 8.39877,24.54341c6.67016,15.7078 17.84473,27.96604 32.04149,37.11412c14.92537,9.61762 30.39229,18.39542 45.6379,27.51453c1.52905,0.91458 3.16433,1.65155 5.30648,2.7583c-36.97851,20.00729 -74.68653,23.19223 -113.82389,9.98761c-11.01709,-3.71707 -11.29992,-3.78604 -9.70809,-15.25377c2.80514,-20.2086 5.99253,-40.46115 14.05026,-59.32443c3.58812,-8.39987 10.89987,-18.30765 14.93703,-23.4085z" fill="#1D4898"/>
 </g>
</svg>